<svg xmlns="http://www.w3.org/2000/svg" viewBox="0 0 400 300" width="400" height="300"><defs>
    <linearGradient id="v4bg4" x1="0" y1="0" x2="1" y2="1">
      <stop offset="0" stop-color="#F6F0FB"/><stop offset="1" stop-color="#E9DDF5"/>
    </linearGradient>
  </defs><g transform="translate(56,52) scale(0.72)">
  <rect width="400" height="300" fill="url(#v4bg4)"/>
  <circle cx="52" cy="52" r="46" fill="#fff" opacity=".35"/>
  <circle cx="356" cy="248" r="62" fill="#fff" opacity=".25"/>
  <circle cx="340" cy="60" r="18" fill="#fff" opacity=".4"/>

  <ellipse cx="200" cy="272" rx="120" ry="14" fill="#000" opacity=".07"/>
  <path d="M96 176h208a10 10 0 0 1 10 10v76a14 14 0 0 1-14 14H100a14 14 0 0 1-14-14v-76a10 10 0 0 1 10-10z" fill="#C9A8E0"/>
  <path d="M86 196c18 14 34 4 52 14s34 2 52 12 34 0 52-10 34-6 72 6v-24a10 10 0 0 0-10-10H96a10 10 0 0 0-10 10z" fill="#8E6BB0"/>
  <path d="M96 176c0-30 46-46 104-46s104 16 104 46z" fill="#FFF6FB"/>
  <circle cx="200" cy="112" r="13" fill="#fff" opacity=".85"/>
  <rect x="196" y="78" width="8" height="28" rx="4" fill="#8E6BB0"/>
  <circle cx="150" cy="146" r="9" fill="#fff" opacity=".7"/>
  <circle cx="250" cy="146" r="9" fill="#fff" opacity=".7"/>
</g><rect x="24" y="212" width="352" height="66" rx="16" fill="#3C2A21" opacity=".07"/><rect x="40" y="228" width="120" height="42" rx="10" fill="#fff" opacity=".65"/><rect x="56" y="240" width="66" height="7" rx="3.5" fill="#B49B8C" opacity=".8"/><rect x="56" y="253" width="44" height="6" rx="3" fill="#D8CABF"/></svg>