<svg xmlns="http://www.w3.org/2000/svg" viewBox="0 0 400 300" width="400" height="300" role="img" aria-label="brownies kukus">
  <defs>
    <linearGradient id="bg1" x1="0" y1="0" x2="1" y2="1">
      <stop offset="0" stop-color="#F6EDE6"/><stop offset="1" stop-color="#E7D5C6"/>
    </linearGradient>
  </defs>
  <rect width="400" height="300" fill="url(#bg1)"/>
  <circle cx="52" cy="52" r="46" fill="#fff" opacity=".35"/>
  <circle cx="356" cy="248" r="62" fill="#fff" opacity=".25"/>
  <circle cx="340" cy="60" r="18" fill="#fff" opacity=".4"/>

  <ellipse cx="200" cy="272" rx="112" ry="13" fill="#000" opacity=".07"/>
  <path d="M108 148h184a8 8 0 0 1 8 8v92a14 14 0 0 1-14 14H114a14 14 0 0 1-14-14v-92a8 8 0 0 1 8-8z" fill="#6B4A38"/>
  <path d="M100 172c22-16 46 6 68-6s44 8 66-4 42 8 66-8v-8a8 8 0 0 0-8-8H108a8 8 0 0 0-8 8z" fill="#4A3125"/>
  <rect x="146" y="124" width="14" height="34" rx="7" fill="#C9A227"/>
  <rect x="238" y="118" width="14" height="40" rx="7" fill="#C9A227"/>
  <circle cx="200" cy="126" r="16" fill="#C9A227"/>
</svg>
