<svg xmlns="http://www.w3.org/2000/svg" viewBox="0 0 400 300" width="400" height="300"><defs>
    <linearGradient id="v4bg9" x1="0" y1="0" x2="1" y2="1">
      <stop offset="0" stop-color="#F4F7FB"/><stop offset="1" stop-color="#E1EAF4"/>
    </linearGradient>
  </defs><g transform="translate(56,52) scale(0.72)">
  <rect width="400" height="300" fill="url(#v4bg9)"/>
  <circle cx="52" cy="52" r="46" fill="#fff" opacity=".35"/>
  <circle cx="356" cy="248" r="62" fill="#fff" opacity=".25"/>
  <circle cx="340" cy="60" r="18" fill="#fff" opacity=".4"/>

  <ellipse cx="200" cy="276" rx="104" ry="13" fill="#000" opacity=".07"/>
  <circle cx="200" cy="182" r="94" fill="#E9EEF5"/>
  <circle cx="200" cy="182" r="94" fill="none" stroke="#FFFFFF" stroke-width="6" opacity=".55"/>
  <circle cx="168" cy="152" r="13" fill="#B9C6D6"/>
  <circle cx="228" cy="164" r="10" fill="#B9C6D6"/>
  <circle cx="190" cy="212" r="12" fill="#B9C6D6"/>
  <circle cx="240" cy="216" r="8" fill="#B9C6D6"/>
  <circle cx="152" cy="204" r="8" fill="#B9C6D6"/>
  <circle cx="212" cy="132" r="7" fill="#B9C6D6"/>
</g><rect x="24" y="212" width="352" height="66" rx="16" fill="#3C2A21" opacity=".07"/><rect x="40" y="228" width="120" height="42" rx="10" fill="#fff" opacity=".65"/><rect x="56" y="240" width="66" height="7" rx="3.5" fill="#B49B8C" opacity=".8"/><rect x="56" y="253" width="44" height="6" rx="3" fill="#D8CABF"/></svg>